<svg xmlns="http://www.w3.org/2000/svg" viewBox="0 0 1280 116" width="1280" height="116" role="img" aria-label="book-viewer: 19 commits in the last 30 days">
<defs><linearGradient id="bg" x1="0" y1="0" x2="1" y2="0"><stop offset="0" stop-color="#0a0f22"/><stop offset="1" stop-color="#1b1640"/></linearGradient><linearGradient id="bar" x1="0" y1="1" x2="0" y2="0"><stop offset="0" stop-color="#38d6ff"/><stop offset="1" stop-color="#ff7ad9"/></linearGradient></defs>
<rect width="1280" height="116" rx="12" fill="url(#bg)"/>
<text x="32" y="24" font-family="-apple-system,'Segoe UI',Helvetica,Arial,sans-serif" font-size="10" letter-spacing="2.5" fill="#7f88b8">#1 · LAST 30 DAYS</text>
<text x="32" y="54" font-family="'Iowan Old Style','Palatino Linotype',Palatino,Georgia,serif" font-size="30" fill="#f4f1ff">book-viewer</text>
<text x="33" y="79" font-family="'Hiragino Sans','Hiragino Kaku Gothic ProN','Yu Gothic','Noto Sans CJK JP','Noto Sans JP',sans-serif" font-size="14" fill="#b9c0e8">自炊本 PDF リーダー。見開き・右綴じを PDF 自体に記録し、読書位置を保持</text>
<rect x="661.5" y="86" width="10.3" height="2" rx="1" fill="#3a4170"/>
<rect x="674.8" y="86" width="10.3" height="2" rx="1" fill="#3a4170"/>
<rect x="688.2" y="86" width="10.3" height="2" rx="1" fill="#3a4170"/>
<rect x="701.5" y="86" width="10.3" height="2" rx="1" fill="#3a4170"/>
<rect x="714.8" y="86" width="10.3" height="2" rx="1" fill="#3a4170"/>
<rect x="728.2" y="86" width="10.3" height="2" rx="1" fill="#3a4170"/>
<rect x="741.5" y="86" width="10.3" height="2" rx="1" fill="#3a4170"/>
<rect x="754.8" y="86" width="10.3" height="2" rx="1" fill="#3a4170"/>
<rect x="768.2" y="86" width="10.3" height="2" rx="1" fill="#3a4170"/>
<rect x="781.5" y="86" width="10.3" height="2" rx="1" fill="#3a4170"/>
<rect x="794.8" y="86" width="10.3" height="2" rx="1" fill="#3a4170"/>
<rect x="808.2" y="86" width="10.3" height="2" rx="1" fill="#3a4170"/>
<rect x="821.5" y="86" width="10.3" height="2" rx="1" fill="#3a4170"/>
<rect x="834.8" y="86" width="10.3" height="2" rx="1" fill="#3a4170"/>
<rect x="848.2" y="86" width="10.3" height="2" rx="1" fill="#3a4170"/>
<rect x="861.5" y="86" width="10.3" height="2" rx="1" fill="#3a4170"/>
<rect x="874.8" y="86" width="10.3" height="2" rx="1" fill="#3a4170"/>
<rect x="888.2" y="86" width="10.3" height="2" rx="1" fill="#3a4170"/>
<rect x="901.5" y="86" width="10.3" height="2" rx="1" fill="#3a4170"/>
<rect x="914.8" y="86" width="10.3" height="2" rx="1" fill="#3a4170"/>
<rect x="928.2" y="86" width="10.3" height="2" rx="1" fill="#3a4170"/>
<rect x="941.5" y="86" width="10.3" height="2" rx="1" fill="#3a4170"/>
<rect x="954.8" y="81.3" width="10.3" height="6.7" rx="2" fill="url(#bar)"/>
<rect x="968.2" y="86" width="10.3" height="2" rx="1" fill="#3a4170"/>
<rect x="981.5" y="86" width="10.3" height="2" rx="1" fill="#3a4170"/>
<rect x="994.8" y="28.0" width="10.3" height="60.0" rx="2" fill="url(#bar)"/>
<rect x="1008.2" y="28.0" width="10.3" height="60.0" rx="2" fill="url(#bar)"/>
<rect x="1021.5" y="86" width="10.3" height="2" rx="1" fill="#3a4170"/>
<rect x="1034.8" y="86" width="10.3" height="2" rx="1" fill="#3a4170"/>
<rect x="1048.2" y="86" width="10.3" height="2" rx="1" fill="#3a4170"/>
<text x="660" y="106" font-family="-apple-system,'Segoe UI',Helvetica,Arial,sans-serif" font-size="10" fill="#6c74a6">09/02</text>
<text x="1060" y="106" text-anchor="end" font-family="-apple-system,'Segoe UI',Helvetica,Arial,sans-serif" font-size="10" fill="#6c74a6">today</text>
<text x="1248" y="66" text-anchor="end" font-family="'Iowan Old Style','Palatino Linotype',Palatino,Georgia,serif" font-size="48" fill="#ffffff">19</text>
<text x="1248" y="90" text-anchor="end" font-family="-apple-system,'Segoe UI',Helvetica,Arial,sans-serif" font-size="11" letter-spacing="2" fill="#9aa3d4">COMMITS · PYTHON</text>
</svg>
